<svg xmlns="http://www.w3.org/2000/svg" viewBox="0 0 640 640" role="img" aria-labelledby="title desc">
  <title id="title">Logo Shushiara</title>
  <desc id="desc">Logo circular de Shushiara con sol rojo, sushi y palillos.</desc>
  <rect width="640" height="640" fill="#ffffff"/>
  <path d="M395 86c-90 8-170 58-218 132-69 106-51 246 44 330 58 51 137 74 214 61 43-7 84-23 119-47-48 44-113 69-182 69-149 0-270-121-270-270 0-128 90-239 215-265 25-6 51-9 78-10z" fill="#050505"/>
  <path d="M450 105c-84-7-169 25-228 89 50-75 139-120 228-89z" fill="#050505"/>
  <path d="M507 205c-77 99-62 243 33 325-53-30-95-78-115-138-22-66-11-138 30-195 16-22 34-40 52-54-2 20-2 41 0 62z" fill="#050505" opacity=".95"/>
  <circle cx="355" cy="202" r="73" fill="#df1f26"/>
  <g transform="translate(205 216)">
    <ellipse cx="147" cy="82" rx="116" ry="54" fill="#f46a1c"/>
    <path d="M53 58c31-35 99-45 162-20 28 11 48 27 57 44-34-23-73-34-119-35-39-1-74 6-100 11z" fill="#ff8b2f"/>
    <path d="M57 90c45 45 122 63 188 34-16 31-63 52-116 50-59-3-109-37-124-78z" fill="#ffffff" opacity=".95"/>
    <path d="M78 30c12 45 7 90-12 134" fill="none" stroke="#ffffff" stroke-width="10" stroke-linecap="round"/>
    <path d="M124 22c9 50 2 102-21 151" fill="none" stroke="#ffffff" stroke-width="10" stroke-linecap="round"/>
    <path d="M171 26c2 53-13 103-43 149" fill="none" stroke="#ffffff" stroke-width="10" stroke-linecap="round"/>
    <path d="M203 45c-6 48-27 89-64 124" fill="none" stroke="#ffffff" stroke-width="10" stroke-linecap="round"/>
    <path d="M169 38l68 23-37 111-71-21z" fill="#050505"/>
    <path d="M34 120c39 38 112 57 174 39" fill="none" stroke="#d9d9d9" stroke-width="8" stroke-linecap="round"/>
  </g>
  <path d="M384 215L531 78" stroke="#050505" stroke-width="17" stroke-linecap="round"/>
  <path d="M408 242L578 128" stroke="#050505" stroke-width="17" stroke-linecap="round"/>
  <text x="320" y="395" text-anchor="middle" font-family="Georgia, 'Times New Roman', serif" font-size="92" fill="#050505">shushiara</text>
  <line x1="166" y1="442" x2="284" y2="442" stroke="#df1f26" stroke-width="5"/>
  <circle cx="320" cy="442" r="11" fill="#df1f26"/>
  <line x1="356" y1="442" x2="474" y2="442" stroke="#df1f26" stroke-width="5"/>
  <text x="320" y="493" text-anchor="middle" font-family="Arial, Helvetica, sans-serif" font-size="29" letter-spacing="17" fill="#050505">SUSHIARA</text>
</svg>
